<svg xmlns="http://www.w3.org/2000/svg" width="512" height="512" viewBox="0 0 512 512">
  <defs>
    <linearGradient id="bg" x1="0%" y1="0%" x2="100%" y2="100%">
      <stop offset="0%" style="stop-color:#0d1117"/>
      <stop offset="100%" style="stop-color:#161b22"/>
    </linearGradient>
    <linearGradient id="accent" x1="0%" y1="0%" x2="100%" y2="100%">
      <stop offset="0%" style="stop-color:#a8edea"/>
      <stop offset="100%" style="stop-color:#fed6e3"/>
    </linearGradient>
  </defs>
  <rect width="512" height="512" rx="112" fill="url(#bg)"/>
  <path d="M128 192 L256 288 L384 192 L384 344 C384 360 372 376 356 376 L156 376 C140 376 128 360 128 344 Z" 
        fill="none" stroke="url(#accent)" stroke-width="10" stroke-linecap="round" stroke-linejoin="round"/>
  <path d="M128 192 L256 296 L384 192" 
        fill="none" stroke="url(#accent)" stroke-width="10" stroke-linecap="round" stroke-linejoin="round"/>
  <path d="M256 232 C256 232 228 204 212 204 C192 204 180 224 180 240 C180 272 256 320 256 320 C256 320 332 272 332 240 C332 224 320 204 300 204 C284 204 256 232 256 232 Z" 
        fill="url(#accent)" opacity="0.9"/>
  <circle cx="256" cy="260" r="8" fill="#0d1117"/>
</svg>
