<svg xmlns="http://www.w3.org/2000/svg" width="192" height="192" viewBox="0 0 192 192">
  <defs>
    <linearGradient id="bg" x1="0%" y1="0%" x2="100%" y2="100%">
      <stop offset="0%" style="stop-color:#0d1117"/>
      <stop offset="100%" style="stop-color:#161b22"/>
    </linearGradient>
    <linearGradient id="accent" x1="0%" y1="0%" x2="100%" y2="100%">
      <stop offset="0%" style="stop-color:#a8edea"/>
      <stop offset="100%" style="stop-color:#fed6e3"/>
    </linearGradient>
  </defs>
  <!-- 背景 -->
  <rect width="192" height="192" rx="42" fill="url(#bg)"/>
  <!-- 信封主体 -->
  <path d="M48 72 L96 108 L144 72 L144 128 C144 134 140 140 134 140 L58 140 C52 140 48 134 48 128 Z" 
        fill="none" stroke="url(#accent)" stroke-width="4" stroke-linecap="round" stroke-linejoin="round"/>
  <!-- 信封折线 -->
  <path d="M48 72 L96 112 L144 72" 
        fill="none" stroke="url(#accent)" stroke-width="4" stroke-linecap="round" stroke-linejoin="round"/>
  <!-- 心形 -->
  <path d="M96 88 C96 88 86 78 80 78 C72 78 68 86 68 92 C68 104 96 120 96 120 C96 120 124 104 124 92 C124 86 120 78 112 78 C106 78 96 88 96 88 Z" 
        fill="url(#accent)" opacity="0.9"/>
  <!-- 时钟指针暗示 -->
  <circle cx="96" cy="98" r="3" fill="#0d1117"/>
</svg>
